<svg class="main-svg" xmlns="http://www.w3.org/2000/svg" xmlns:xlink="http://www.w3.org/1999/xlink" width="650" height="550" style="" viewBox="0 0 650 550"><rect x="0" y="0" width="650" height="550" style="fill: rgb(255, 255, 255); fill-opacity: 1;"/><defs id="defs-aa964b"><g class="clips"><clipPath id="clipaa964bxyplot" class="plotclip"><rect width="462" height="370"/></clipPath><clipPath class="axesclip" id="clipaa964bx"><rect x="80" y="0" width="462" height="550"/></clipPath><clipPath class="axesclip" id="clipaa964by"><rect x="0" y="100" width="650" height="370"/></clipPath><clipPath class="axesclip" id="clipaa964bxy"><rect x="80" y="100" width="462" height="370"/></clipPath></g><g class="gradients"/></defs><g class="bglayer"/><g class="layer-below"><g class="imagelayer"/><g class="shapelayer"/></g><g class="cartesianlayer"><g class="subplot xy"><g class="layer-subplot"><g class="shapelayer"/><g class="imagelayer"/></g><g class="gridlayer"><g class="x"/><g class="y"><path class="ygrid crisp" transform="translate(0,421.7)" d="M80,0h462" style="stroke: rgb(238, 238, 238); stroke-opacity: 1; stroke-width: 1px;"/><path class="ygrid crisp" transform="translate(0,356.22)" d="M80,0h462" style="stroke: rgb(238, 238, 238); stroke-opacity: 1; stroke-width: 1px;"/><path class="ygrid crisp" transform="translate(0,290.73)" d="M80,0h462" style="stroke: rgb(238, 238, 238); stroke-opacity: 1; stroke-width: 1px;"/><path class="ygrid crisp" transform="translate(0,225.24)" d="M80,0h462" style="stroke: rgb(238, 238, 238); stroke-opacity: 1; stroke-width: 1px;"/><path class="ygrid crisp" transform="translate(0,159.76)" d="M80,0h462" style="stroke: rgb(238, 238, 238); stroke-opacity: 1; stroke-width: 1px;"/></g></g><g class="zerolinelayer"/><path class="xlines-below"/><path class="ylines-below"/><g class="overlines-below"/><g class="xaxislayer-below"/><g class="yaxislayer-below"/><g class="overaxes-below"/><g class="plot" transform="translate(80, 100)" clip-path="url('#clipaa964bxyplot')"><g class="violinlayer mlayer"><g class="trace violins" style="opacity: 1;"><path class="violin" d="M154,18.5L153.5,18.5Q153.22,22.06 153,23.84C152.78,25.62 152.52,27.4 152.17,29.17C151.82,30.96 151.41,32.74 150.9,34.51C150.38,36.3 149.79,38.09 149.07,39.85C148.34,41.65 147.5,43.44 146.53,45.19C145.53,47 144.41,48.78 143.14,50.52C141.81,52.34 140.3,54.13 138.67,55.86C136.94,57.69 135.02,59.47 133.01,61.2C130.89,63.03 128.56,64.78 126.22,66.53C123.81,68.34 121.23,70.08 118.77,71.87C116.33,73.64 113.77,75.37 111.52,77.21C109.4,78.94 107.23,80.67 105.59,82.55C104.12,84.24 102.7,86.02 101.99,87.88C101.34,89.59 101.06,91.47 101.28,93.22C101.51,95.03 102.41,96.86 103.42,98.56C104.53,100.43 106.2,102.17 107.85,103.89C109.62,105.73 111.71,107.47 113.74,109.23C115.83,111.03 118.07,112.79 120.22,114.57C122.35,116.35 124.53,118.11 126.58,119.91C128.57,121.66 130.53,123.43 132.34,125.24C134.08,126.99 135.74,128.76 137.26,130.58C138.71,132.32 140.06,134.11 141.28,135.92C142.46,137.67 143.51,139.45 144.47,141.25C145.41,143.01 146.24,144.79 147,146.59C147.75,148.35 148.39,150.14 148.99,151.93C149.58,153.7 150.1,155.48 150.56,157.27C151.02,159.04 151.41,160.82 151.76,162.6C152.11,164.37 152.39,166.16 152.64,167.94C152.88,169.72 153.07,171.5 153.23,173.28Q153.39,175.06 153.6,178.62L154,178.62" style="vector-effect: non-scaling-stroke; stroke-width: 2px; stroke: rgb(0, 128, 255); stroke-opacity: 1; fill: rgb(105, 187, 218); fill-opacity: 1;"/><path class="violin" d="M308,270.95L302.59,270.95Q299.44,274.5 297.41,276.12C295.07,277.98 292.23,279.67 289.2,281.3C285.75,283.15 281.76,284.81 277.72,286.47C273.32,288.27 268.45,289.94 263.75,291.65C258.99,293.39 253.88,295.02 249.33,296.82C245.15,298.48 240.69,300.02 237.44,301.99C234.84,303.56 231.77,305.2 231,307.17C230.39,308.74 230.79,310.8 231.77,312.34C233.07,314.39 236.53,315.92 239.52,317.51C243.14,319.44 247.8,321.01 252.19,322.69C256.85,324.47 261.98,326.11 266.73,327.86C271.34,329.56 276.07,331.21 280.31,333.03C284.16,334.68 287.92,336.35 291.14,338.21C293.95,339.83 296.56,341.52 298.68,343.38Q300.53,345 303.33,348.55L308,348.55" style="vector-effect: non-scaling-stroke; stroke-width: 2px; stroke: rgb(0, 128, 255); stroke-opacity: 1; fill: rgb(105, 187, 218); fill-opacity: 1;"/><path class="meanline" d="M101.51879119873047,94.4H154" style="fill: none; vector-effect: non-scaling-stroke; stroke-width: 2px; stroke-dasharray: 4px, 2px; stroke: rgb(0, 128, 255); stroke-opacity: 1;"/><path class="meanline" d="M230.72586059570312,309.23H308" style="fill: none; vector-effect: non-scaling-stroke; stroke-width: 2px; stroke-dasharray: 4px, 2px; stroke: rgb(0, 128, 255); stroke-opacity: 1;"/></g><g class="trace violins" style="opacity: 1;"><path class="violin" d="M154,341.35L155.3,341.35Q156.05,337.69 156.63,335.89C157.23,334.05 157.95,332.22 158.85,330.44C159.78,328.58 160.91,326.76 162.15,324.98C163.45,323.12 164.97,321.32 166.5,319.53C168.08,317.68 169.85,315.89 171.51,314.07C173.16,312.26 174.95,310.48 176.44,308.62C177.86,306.84 179.32,305.05 180.29,303.16C181.19,301.4 181.95,299.55 182.16,297.71C182.36,295.91 182.11,294.02 181.57,292.25C181,290.38 179.85,288.57 178.71,286.8C177.49,284.92 175.88,283.15 174.42,281.34C172.94,279.51 171.27,277.74 169.87,275.89C168.52,274.1 167.15,272.31 166.16,270.43C165.23,268.66 164.46,266.83 164.04,264.98C163.64,263.19 163.55,261.33 163.65,259.52C163.75,257.7 164.21,255.87 164.66,254.07C165.12,252.24 165.82,250.43 166.41,248.61C167,246.79 167.68,244.99 168.21,243.16C168.73,241.35 169.21,239.53 169.56,237.7C169.91,235.89 170.14,234.07 170.33,232.25C170.51,230.43 170.57,228.61 170.67,226.79C170.76,224.97 170.8,223.16 170.9,221.34C171,219.52 171.11,217.7 171.26,215.88C171.41,214.06 171.62,212.25 171.79,210.43C171.97,208.61 172.18,206.79 172.31,204.97C172.44,203.15 172.55,201.34 172.56,199.52C172.57,197.7 172.5,195.88 172.36,194.06C172.22,192.24 171.97,190.42 171.69,188.61C171.41,186.79 171.05,184.97 170.7,183.15C170.34,181.33 169.95,179.52 169.56,177.7C169.17,175.88 168.78,174.06 168.36,172.24C167.94,170.42 167.52,168.6 167.05,166.79C166.57,164.97 166.06,163.14 165.51,161.33C164.95,159.51 164.34,157.69 163.71,155.88C163.08,154.06 162.38,152.24 161.73,150.42C161.08,148.6 160.39,146.8 159.8,144.97C159.21,143.16 158.64,141.34 158.2,139.51C157.77,137.7 157.39,135.88 157.17,134.06C156.95,132.25 156.84,130.42 156.85,128.6C156.86,126.78 157,124.96 157.2,123.15C157.4,121.33 157.75,119.51 158.06,117.69C158.37,115.87 158.77,114.06 159.08,112.24C159.39,110.42 159.71,108.6 159.9,106.78C160.09,104.97 160.21,103.15 160.2,101.33C160.19,99.51 160.07,97.68 159.86,95.87C159.65,94.05 159.3,92.23 158.95,90.42C158.6,88.6 158.15,86.78 157.75,84.96C157.35,83.14 156.91,81.33 156.54,79.51C156.17,77.69 155.82,75.87 155.54,74.05Q155.26,72.24 154.84,68.6L154,68.6" style="vector-effect: non-scaling-stroke; stroke-width: 2px; stroke: rgb(255, 18, 18); stroke-opacity: 1; fill: rgb(250, 163, 163); fill-opacity: 1;"/><path class="violin" d="M308,351.5L311.6,351.5Q313.83,347.93 315.39,346.28C317.15,344.42 319.36,342.7 321.79,341.06C324.58,339.18 327.9,337.49 331.35,335.83C335.2,333.98 339.57,332.3 343.9,330.61C348.48,328.82 353.47,327.15 358.14,325.39C362.7,323.67 367.54,322.04 371.62,320.17C375.19,318.53 379.08,317.01 381.39,314.95C383.14,313.39 384.98,311.48 385,309.73C385.02,307.99 383.24,306.06 381.55,304.5C379.32,302.44 375.51,300.92 372.02,299.28C368.04,297.41 363.31,295.78 358.85,294.06C354.28,292.3 349.41,290.63 344.92,288.84C340.66,287.14 336.36,285.46 332.55,283.62C329.12,281.96 325.81,280.27 323,278.4C320.53,276.76 318.27,275.03 316.44,273.17C314.81,271.52 313.46,269.76 312.39,267.95C311.39,266.27 310.7,264.5 310.12,262.73C309.56,261.02 309.24,259.26 308.95,257.51Q308.67,255.78 308.4,252.29L308,252.29" style="vector-effect: non-scaling-stroke; stroke-width: 2px; stroke: rgb(255, 18, 18); stroke-opacity: 1; fill: rgb(250, 163, 163); fill-opacity: 1;"/><path class="meanline" d="M170.3885955810547,231.61H154" style="fill: none; vector-effect: non-scaling-stroke; stroke-width: 2px; stroke-dasharray: 4px, 2px; stroke: rgb(255, 18, 18); stroke-opacity: 1;"/><path class="meanline" d="M384.9767761230469,309.35H308" style="fill: none; vector-effect: non-scaling-stroke; stroke-width: 2px; stroke-dasharray: 4px, 2px; stroke: rgb(255, 18, 18); stroke-opacity: 1;"/></g></g></g><g class="overplot"/><path class="xlines-above crisp" d="M0,0" style="fill: none;"/><path class="ylines-above crisp" d="M0,0" style="fill: none;"/><g class="overlines-above"/><g class="xaxislayer-above"><g class="xtick"><text text-anchor="middle" x="0" y="483" transform="translate(234,0)" style="font-family: 'Open Sans', verdana, arial, sans-serif; font-size: 12px; fill: rgb(68, 68, 68); fill-opacity: 1; white-space: pre;">vastus lateralis muscle</text></g><g class="xtick"><text text-anchor="middle" x="0" y="483" transform="translate(388,0)" style="font-family: 'Open Sans', verdana, arial, sans-serif; font-size: 12px; fill: rgb(68, 68, 68); fill-opacity: 1; white-space: pre;">whole blood</text></g></g><g class="yaxislayer-above"><g class="ytick"><text text-anchor="end" x="79" y="4.199999999999999" transform="translate(0,421.7)" style="font-family: 'Open Sans', verdana, arial, sans-serif; font-size: 12px; fill: rgb(68, 68, 68); fill-opacity: 1; white-space: pre;">0</text></g><g class="ytick"><text text-anchor="end" x="79" y="4.199999999999999" transform="translate(0,356.22)" style="font-family: 'Open Sans', verdana, arial, sans-serif; font-size: 12px; fill: rgb(68, 68, 68); fill-opacity: 1; white-space: pre;">0.2</text></g><g class="ytick"><text text-anchor="end" x="79" y="4.199999999999999" transform="translate(0,290.73)" style="font-family: 'Open Sans', verdana, arial, sans-serif; font-size: 12px; fill: rgb(68, 68, 68); fill-opacity: 1; white-space: pre;">0.4</text></g><g class="ytick"><text text-anchor="end" x="79" y="4.199999999999999" transform="translate(0,225.24)" style="font-family: 'Open Sans', verdana, arial, sans-serif; font-size: 12px; fill: rgb(68, 68, 68); fill-opacity: 1; white-space: pre;">0.6</text></g><g class="ytick"><text text-anchor="end" x="79" y="4.199999999999999" transform="translate(0,159.76)" style="font-family: 'Open Sans', verdana, arial, sans-serif; font-size: 12px; fill: rgb(68, 68, 68); fill-opacity: 1; white-space: pre;">0.8</text></g></g><g class="overaxes-above"/></g></g><g class="polarlayer"/><g class="ternarylayer"/><g class="geolayer"/><g class="pielayer"/><g class="sunburstlayer"/><g class="glimages"/><defs id="topdefs-aa964b"><g class="clips"/><clipPath id="legendaa964b"><rect width="87" height="58" x="0" y="0"/></clipPath></defs><g class="layer-above"><g class="imagelayer"/><g class="shapelayer"/></g><g class="infolayer"><g class="legend" pointer-events="all" transform="translate(551.24, 100)"><rect class="bg" shape-rendering="crispEdges" width="87" height="58" x="0" y="0" style="stroke: rgb(68, 68, 68); stroke-opacity: 1; fill: rgb(255, 255, 255); fill-opacity: 1; stroke-width: 0px;"/><g class="scrollbox" transform="translate(0, 0)" clip-path="url('#legendaa964b')"><g class="groups" transform="translate(0, 0)"><g class="traces" transform="translate(0, 14.5)" style="opacity: 1;"><text class="legendtext user-select-none" text-anchor="start" x="40" y="4.680000000000001" style="font-family: 'Open Sans', verdana, arial, sans-serif; font-size: 12px; fill: rgb(68, 68, 68); fill-opacity: 1; white-space: pre;">Case</text><g class="layers" style="opacity: 1;"><g class="legendfill"/><g class="legendlines"/><g class="legendsymbols"><g class="legendpoints"><path class="legendbox" d="M6,6H-6V-6H6Z" transform="translate(20,0)" style="stroke-width: 2px; fill: rgb(105, 187, 218); fill-opacity: 1; stroke: rgb(0, 128, 255); stroke-opacity: 1;"/></g></g></g><rect class="legendtoggle" pointer-events="all" x="0" y="-9.5" width="127" height="19" style="cursor: pointer; fill: rgb(0, 0, 0); fill-opacity: 0;"/></g></g><g class="groups" transform="translate(0, 10)"><g class="traces" transform="translate(0, 33.5)" style="opacity: 1;"><text class="legendtext user-select-none" text-anchor="start" x="40" y="4.680000000000001" style="font-family: 'Open Sans', verdana, arial, sans-serif; font-size: 12px; fill: rgb(68, 68, 68); fill-opacity: 1; white-space: pre;">Control</text><g class="layers" style="opacity: 1;"><g class="legendfill"/><g class="legendlines"/><g class="legendsymbols"><g class="legendpoints"><path class="legendbox" d="M6,6H-6V-6H6Z" transform="translate(20,0)" style="stroke-width: 2px; fill: rgb(250, 163, 163); fill-opacity: 1; stroke: rgb(255, 18, 18); stroke-opacity: 1;"/></g></g></g><rect class="legendtoggle" pointer-events="all" x="0" y="-9.5" width="127" height="19" style="cursor: pointer; fill: rgb(0, 0, 0); fill-opacity: 0;"/></g></g></g><rect class="scrollbar" rx="20" ry="3" width="0" height="0" x="0" y="0" style="fill: rgb(128, 139, 164); fill-opacity: 1;"/></g><g class="g-gtitle"><text class="gtitle" x="325" y="50" text-anchor="middle" dy="0em" style="font-family: 'Open Sans', verdana, arial, sans-serif; font-size: 17px; fill: rgb(68, 68, 68); opacity: 1; font-weight: normal; white-space: pre;">type 2 diabetes</text></g><g class="g-xtitle"/><g class="g-ytitle"/></g></svg>